# xmcd
# 
# Track frame offsets:
#     150
#     5080
#     31308
#     47668
#     64768
#     93508
#     118844
#     145029
#     168480
#     203456
# 
# Disc length: 3074
# 
# Revision: 0
# Processed by: cddbd v1.5.2PL0 Copyright (c) Steve Scherf et al.
# Submitted via: fre:ac v1.0.31
# 
DISCID=830c000a
DTITLE=Hybreed Chaos - Entombed In Dark Matter
DYEAR=0
DGENRE=
TTITLE0=Entombed In Dark Matter
TTITLE1=Into The Heart Of The Swarm
TTITLE2=Bloodshot
TTITLE3=Proletherion
TTITLE4=Cognitive Dissonance
TTITLE5=Scorched
TTITLE6=Weight Of The Inner Void
TTITLE7=Soliptic Confinement
TTITLE8=Eroded
TTITLE9=Etre Ou Le Neant
EXTD=
EXTT0=
EXTT1=
EXTT2=
EXTT3=
EXTT4=
EXTT5=
EXTT6=
EXTT7=
EXTT8=
EXTT9=
PLAYORDER=
